<svg xmlns="http://www.w3.org/2000/svg" viewBox="0 0 184.95 264.77"><defs><style>.cls-1{fill:#fff;stroke:#221f20;stroke-miterlimit:10;stroke-width:6px;}.cls-2{fill:#39ff14;}.cls-3{fill:#221f20;}.cls-4{fill:#010200;}</style></defs><g id="Layer_2" data-name="Layer 2"><g id="Layer_1-2" data-name="Layer 1"><rect class="cls-1" x="3" y="3" width="178.95" height="258.77"/><line class="cls-1" x1="3" y1="218.65" x2="181.95" y2="218.65"/><line class="cls-1" x1="3" y1="175.52" x2="181.95" y2="175.52"/><line class="cls-1" x1="3" y1="132.39" x2="181.95" y2="132.39"/><line class="cls-1" x1="3" y1="89.26" x2="181.95" y2="89.26"/><line class="cls-1" x1="3" y1="46.13" x2="181.95" y2="46.13"/><line class="cls-1" x1="152.13" y1="3" x2="152.13" y2="261.77"/><line class="cls-1" x1="122.3" y1="3" x2="122.3" y2="261.77"/><line class="cls-1" x1="92.48" y1="3" x2="92.48" y2="261.77"/><line class="cls-1" x1="62.65" y1="3" x2="62.65" y2="261.77"/><line class="cls-1" x1="32.83" y1="3" x2="32.83" y2="261.77"/><path class="cls-2" d="M87.31,39.25,77.88,69.73C75,79.18,72.34,88.83,68.52,98l1-2.39a68.45,68.45,0,0,1-6.25,11.7A10,10,0,0,0,66.87,121c5.06,2.67,10.54,1,13.68-3.59,5.55-8.18,8.93-17.71,11.89-27.09,3-9.66,6-19.35,9-29l5.17-16.68c1.55-5-1.83-11.13-7-12.3a10.22,10.22,0,0,0-12.31,7Z"/><path class="cls-2" d="M61.33,120.16a521.46,521.46,0,0,0-13.2,55.42q-1.44,8-2.63,16c-.41,2.76-.46,5.19,1,7.7a10,10,0,0,0,13.68,3.59c2-1.31,4.22-3.47,4.6-6a517.89,517.89,0,0,1,11.44-55.81q2.07-7.85,4.39-15.64c1.49-5-1.79-11.12-7-12.3a10.2,10.2,0,0,0-12.3,7Z"/><path class="cls-2" d="M50.28,129.5c.67,15.78,1.3,31.61.28,47.39q-.44,6.68-1.31,13.32l.36-2.66a143.59,143.59,0,0,1-5.92,26c-1.95,5.81,3.33,13.21,9.64,12.66l10.45-.9-10-10a6,6,0,0,1,0,1.34l.35-2.66a5.74,5.74,0,0,1-.39,1.28l1-2.38A6.39,6.39,0,0,1,54,214l1.57-2a7.26,7.26,0,0,1-1,1l2-1.56a7,7,0,0,1-1.16.67l2.39-1a5.34,5.34,0,0,1-1.29.34l2.66-.36a3.1,3.1,0,0,1-.68,0l5.05,18.64L90.1,212.29c8.56-5.62,19.76-11.34,22.12-22.29a10.07,10.07,0,0,0-1.79-8.72c-2-2.62-4.6-3.66-7.85-3.94-15.31-1.32-31.08,4.78-42,15.5L76.32,205a59.23,59.23,0,0,1,4-5.92l-1.56,2A58.51,58.51,0,0,1,88.87,191L71.8,183.89l-.11,4.68A10.1,10.1,0,0,0,79,198.21a11.9,11.9,0,0,0,5.31,0c2.13-.48,5.07-2.54,6-4.59a137.19,137.19,0,0,0,10.36-33.57L81,157.39l-1.32,21.08h20a56.12,56.12,0,0,1,.47-8.88l-.36,2.66c1.63-12,6.4-23.26,9.08-35,3.06-13.45,3.38-27.51,4.39-41.22l1.63-22.26a10,10,0,0,0-17.07-7.07,11,11,0,0,0-2.93,7.07L93,100c-.63,8.65-1.06,17.34-2.2,25.94l.36-2.66c-2.54,18.67-12,36.07-11.45,55.22a10.38,10.38,0,0,0,2.93,7.07,10,10,0,0,0,17.07-7.07L101,157.39a10,10,0,0,0-2.93-7.07,10.32,10.32,0,0,0-5.74-2.75A9.63,9.63,0,0,0,86,148.76c-2,1.33-4.17,3.46-4.59,6a128.48,128.48,0,0,1-8.24,28.61l1-2.39c-.37.86-.74,1.71-1.12,2.56l18.64,5,.11-4.68a10,10,0,0,0-6.15-9.14,9.67,9.67,0,0,0-5.18-.68,11.08,11.08,0,0,0-5.75,2.75,65.42,65.42,0,0,0-15.67,18A10,10,0,0,0,74.75,207a47,47,0,0,1,3.9-3.42l-2,1.57a45.76,45.76,0,0,1,10-5.81l-2.39,1a46.35,46.35,0,0,1,11.5-3.14l-2.65.36a44.1,44.1,0,0,1,9.54-.21l-9.64-12.66a13.75,13.75,0,0,1-.64,2.07l1-2.39a14.33,14.33,0,0,1-1.64,2.77l1.57-2A24.09,24.09,0,0,1,89,189.21l2-1.57c-2.66,2-5.5,3.77-8.28,5.6l-9.8,6.44L53.53,212.43c-3.58,2.36-6,6.95-4.59,11.29a10.29,10.29,0,0,0,9.64,7.34,15.09,15.09,0,0,0,11-4.65c2.7-2.83,4.7-7.12,4.25-11.1-.29-2.61-.88-5.2-2.93-7.07-1.85-1.71-4.45-3.16-7.07-2.93l-10.45.9L63,218.87c7.49-22.39,8.54-46.44,8-69.86-.15-6.5-.42-13-.69-19.51a10.49,10.49,0,0,0-2.93-7.07,10,10,0,0,0-17.07,7.07Z"/><path class="cls-2" d="M95.54,47.79Q87.8,90.74,78.36,133.36q-2.65,12-5.46,24a10.45,10.45,0,0,0,1,7.7,10,10,0,0,0,18.27-2.39q9.91-42.5,18.14-85.37,2.33-12.1,4.51-24.24a10.77,10.77,0,0,0-1-7.71,10,10,0,0,0-13.68-3.59c-2.08,1.34-4.14,3.45-4.6,6Z"/><path class="cls-2" d="M26.26,64a176.28,176.28,0,0,0-3.7,30.19c-.32,9.33.53,18.51,1.28,27.79a73.85,73.85,0,0,1,0,15.16l.36-2.66a49,49,0,0,1-3.27,11.43,37.4,37.4,0,0,0-2.73,13.67c0,8.87,2.79,17.61,4,26.36l-.36-2.65a141.12,141.12,0,0,1,0,37.07l.36-2.65-.06.47a11.27,11.27,0,0,0,1,7.71,10.28,10.28,0,0,0,6,4.6,10.17,10.17,0,0,0,7.71-1c2-1.3,4.25-3.48,4.59-6a153.06,153.06,0,0,0,1.36-30.85c-.36-5.46-1-10.92-1.94-16.32-.78-4.7-1.93-9.33-2.59-14l.36,2.66a35.27,35.27,0,0,1-.17-8.83L38,158.72c.71-5.08,3.33-9.55,4.58-14.49a60.44,60.44,0,0,0,1.56-17c-.19-5-.8-10-1.2-15-.42-5.29-.58-10.6-.47-15.9a160.61,160.61,0,0,1,1.36-17.81l-.36,2.66q.81-6,2-11.9a10.66,10.66,0,0,0-1-7.71,10.17,10.17,0,0,0-6-4.59,10,10,0,0,0-12.3,7Z"/><path class="cls-2" d="M35.87,79.7a88.61,88.61,0,0,1-.45,22.13l.36-2.65c-2.08,15.12-6.76,29.71-9.5,44.7a121.92,121.92,0,0,0-2.39,24.69c.18,8.37,1.67,16.65,2.25,25a143.44,143.44,0,0,1-.91,28.7c-.31,2.34,1.34,5.48,2.93,7.07a10,10,0,0,0,14.14,0l1.56-2a9.94,9.94,0,0,0,1.37-5,143.52,143.52,0,0,0,1-27.72c-.57-9.11-2.28-18.14-2.33-27.29a100.75,100.75,0,0,1,1-14l-.36,2.66c2.76-20.13,9.85-39.4,11.57-59.72a82.8,82.8,0,0,0-.18-16.51c-.32-2.74-.9-5-2.93-7.07a10,10,0,0,0-14.14,0c-1.68,1.82-3.23,4.49-2.93,7.07Z"/><path class="cls-2" d="M44.1,34,42.37,78.75a5,5,0,0,0,5,5,5.11,5.11,0,0,0,5-5L54.1,34a5,5,0,0,0-5-5,5.1,5.1,0,0,0-5,5Z"/><path class="cls-2" d="M42.44,40.36V58.19a5,5,0,0,0,10,0V40.36a5,5,0,0,0-10,0Z"/><path class="cls-2" d="M46.11,45.39l0,26.73c0,4.59-.12,9.2.91,13.71.42,1.88,1,3.72,1.59,5.57.3,1,.59,2,.82,3,.1.43.18.87.27,1.3.09.59.1.58,0,0,0,.3.06.59.08.89.21,2.6,2.16,5.12,5,5,2.54-.12,5.22-2.21,5-5-.34-4.38-1.84-8.33-2.92-12.53-.13-.51-.25-1-.35-1.52,0-.2-.28-1.78-.15-.74-.13-1-.19-2.07-.22-3.1-.08-2.18,0-4.37,0-6.56l0-26.73a5,5,0,0,0-10,0Z"/><path class="cls-2" d="M49.53,65.5a634.72,634.72,0,0,1-2.83,81.69q-.57,5.63-1.23,11.26c-.23,2-.47,3.91-.72,5.87-.12,1-.25,2-.38,2.93,0,.33-.09.65-.13,1,.13-1-.13.94-.15,1.11a5.53,5.53,0,0,0,.5,3.85,5.1,5.1,0,0,0,3,2.3c2.35.54,5.77-.72,6.15-3.49a643.88,643.88,0,0,0,6.08-83.34q.07-11.58-.28-23.16a5,5,0,0,0-10,0Z"/><path class="cls-2" d="M46.29,133.14q-3.09,30-3.69,60.16-.16,8.64-.13,17.29a5,5,0,0,0,4.33,4.91c2.3.31,5-1.13,5.49-3.58a35.82,35.82,0,0,1,1.71-6c.1-.27.53-1.27.17-.46.24-.55.49-1.09.76-1.62.47-.94,1-1.85,1.52-2.74l-9.14-3.85-9.72,27.7a5,5,0,0,0,7.35,5.64l9.75-5.4-7.35-5.64-3,7.86c-1.34,3.49,2.74,7.36,6.15,6.15l10.48-3.69-3.86-9.14L46.44,226c-2.65,1.32-3.47,5.92-1,7.85a16.39,16.39,0,0,0,9.19,3.63,18.4,18.4,0,0,0,8.1-1.3c5.82-2.31,10.42-6.55,15.29-10.36l1.65-1.29c.7-.55-.91.7.28-.21l.73-.56q1.85-1.43,3.71-2.8,3.54-2.64,7.13-5.2,7.29-5.19,14.81-10,8.5-5.48,17.27-10.49a5,5,0,1,0-5-8.64q-14.7,8.44-28.65,18.12-7,4.83-13.71,10-3.65,2.78-7.25,5.63c-1,.78-2,1.58-3,2.36,0,0-1.09.84-.51.4s-.55.41-.53.39c-.57.43-1.16.84-1.76,1.24a28.18,28.18,0,0,1-3.72,2.07c.87-.4.19-.08,0,0-.36.12-.72.25-1.08.35a6.4,6.4,0,0,1-1.87.41c1.13,0,.48,0,.19,0s-.75,0-1.14,0-.63,0-.94,0c-.61,0,1,.23,0,0-.3-.08-.61-.13-.91-.22s-1.3-.49-.62-.18-.09-.06-.24-.15-1.37-.93-.38-.15l-1,7.85,10.64-5.29a5,5,0,0,0,2.05-6.24c-.91-2.15-3.54-3.73-5.9-2.9l-10.48,3.7L54,230.06l3-7.86c.71-1.84-.36-4.15-1.79-5.26a5,5,0,0,0-5.56-.39L39.89,222l7.35,5.64L57,199.9c.83-2.35-.75-5-2.89-5.9a5,5,0,0,0-6.24,2,41.29,41.29,0,0,0-5.18,13.22l9.83,1.33q-.12-30.14,2.25-60.22.68-8.62,1.57-17.23c.27-2.61-2.49-5.11-5-5-2.94.14-4.71,2.21-5,5Z"/><path class="cls-2" d="M100.43,210.23c11.63-.43,20.59-8,29.14-15.08q1.62-1.35,3.27-2.67l1.84-1.46.73-.57.47-.37q3.52-2.73,7.14-5.32c4.76-3.43,9.66-6.6,14.56-9.81a26.24,26.24,0,0,0,7.62-7,13.75,13.75,0,0,0,2-11,5,5,0,0,0-6.15-3.49,5.11,5.11,0,0,0-3.49,6.15c.24.95.09,0,0-.17a5.33,5.33,0,0,1,0,1c.08.69.22-.84,0-.16-.09.32-.14.64-.24,1s-.17.5-.26.75c.08-.21.45-.85,0-.1-.15.23-.27.47-.41.7s-.91,1-.16.28a30.37,30.37,0,0,1-2.39,2.29c.87-.71-.64.45-.84.58-.57.39-1.16.77-1.75,1.15-4.57,2.93-9.08,5.94-13.48,9.1q-7.09,5.1-13.86,10.61c-1.93,1.57-3.83,3.18-5.77,4.74l-1.46,1.17c-.15.12-.74.58,0,0l-.66.5c-1,.75-2,1.47-3,2.16s-2.27,1.48-3.46,2.14c-.59.32-1.18.63-1.78.93l-.72.34c-1.2.57,1-.35-.27.12a28.06,28.06,0,0,1-3.58,1.13l-1,.21c-.15,0-1.26.23-.51.11s-.48,0-.53,0c-.4,0-.8.06-1.2.07-2.61.1-5.13,2.23-5,5a5.06,5.06,0,0,0,5,5Z"/><path class="cls-2" d="M172.39,160.78l2.31-3.16c1.62-2.22.32-5.54-1.8-6.84-5.87-3.61-13.08-3.14-19.18-.41-5.49,2.46-9.77,7-13.4,11.72-1.33,1.72-2.08,4-.78,6.06a5.08,5.08,0,0,0,5.65,2.3,111.23,111.23,0,0,0,18.4-8,5,5,0,0,0-3.85-9.14c-8.88,2.95-17.87,6-26,10.6-7.86,4.47-14.39,10.72-21.13,16.65-1,.84-1.92,1.67-2.9,2.49l-1.3,1.08-.66.53c-.1.07-1,.79-.49.39s-.11.08-.17.12l-.85.63c-.51.38-1,.75-1.54,1.11-1,.72-2.11,1.4-3.2,2.06l5.05,8.63c8.5-5.43,17-10.87,25.13-16.88,2.27-1.68,4.52-3.41,6.73-5.17.91-.73,1.81-1.47,2.7-2.21a12.62,12.62,0,0,1,1.33-1.11c-1.2.74.34-.16.59-.3,1.1-.61-.74.21.4-.19.21-.08.91-.16.12-.08-1,.09.63.21-.43,0s.48.39-.45-.11a4.12,4.12,0,0,1-.91-.52,2.49,2.49,0,0,1-.71-1.09s-.24-2.3.21-2.09c0,0-.34.64-.35.57s.81-.81.1-.2a4.69,4.69,0,0,1-.54.5s.77-.52.28-.2c-1,.65-2.07,1.19-3.15,1.74l-16.29,8.31,6.84,6.84,6.71-8.94c1.49-2,.49-5.08-1.29-6.45-2.09-1.62-4.6-1.2-6.56.39-.42.34-.85.67-1.26,1s0,0,.1-.07l-.74.55c-.92.7-1.86,1.37-2.81,2s-1.65,1.13-2.49,1.67c-.44.29-.88.58-1.34.84l-.17.11c-.43.22-.48.25-.13.08a1.36,1.36,0,0,1,1.45.06,1.72,1.72,0,0,1,1.51.36c.15.11.85,1.06.58.57a3.51,3.51,0,0,0-.27-.4,10.71,10.71,0,0,0-1.27-1.64,7.49,7.49,0,0,0-3.82-2.07,11.44,11.44,0,0,0-4.4.12,20.41,20.41,0,0,0-2.61.6l.59-.07-.36,0c-.23-.18-.65.26,0,.05l.32,0a3.81,3.81,0,0,1-.51-.12c-.6-.07.44.18.37.19-.23,0-1.23-.84-.69-.37s-1-1.05-.38-.39c.43.5-.3-.52-.41-.71s-.21-.73,0,.13c-.06-.21-.14-.41-.2-.62-.15-.49-.23-1-.35-1.49,0,.07.07.84,0,.25,0-.37-.07-.74-.09-1.1-.25-4.53,0-9.12,0-13.65l.12-15.95a5,5,0,0,0-10,0l-.12,15.71L97.58,164a57.91,57.91,0,0,0,.16,7.57c.66,5.43,3.63,11.3,9.57,12.37a11.94,11.94,0,0,0,4.65-.08c.5-.1,1-.23,1.5-.35.25-.06.49-.13.74-.18l.37-.08c.47-.08.48-.09.05,0l-.31.05q.68,0,0-.06c-.35-.17-.78-.35-1.14-.52s-.18-.17,0,0c-.77-.88-.39-.49-.22-.22a8.07,8.07,0,0,0,3.69,3.34c3.68,1.56,7-.8,9.91-2.79,2.58-1.76,5.07-3.65,7.49-5.61l-7.85-6.06-6.71,9c-1.27,1.69-.71,4.69.78,6.06a5.22,5.22,0,0,0,6.06.78l16.5-8.42c2.68-1.37,5.28-2.95,6.87-5.61a7.54,7.54,0,0,0-2.24-10.3c-6.1-3.82-11.92,2.24-16.33,5.76l-1.47,1.15c-1.17.93.44-.32-.27.22l-.93.7c-1.11.85-2.23,1.68-3.36,2.5q-3.57,2.61-7.24,5.08c-5.39,3.67-10.89,7.19-16.39,10.7-2.2,1.4-3.3,4.51-1.79,6.84a5.09,5.09,0,0,0,6.84,1.79c7.6-4.57,13.93-10.82,20.59-16.6l2.26-1.93,1.15-.94.66-.53c.1-.07,1-.78.5-.39s.22-.16.34-.25l.51-.38,1.37-1c.9-.63,1.82-1.23,2.75-1.8,1.89-1.18,3.85-2.25,5.85-3.24,1-.49,2-1,3-1.42l1.43-.63c.72-.32-.68.27.05,0l1-.42c4.72-1.91,9.54-3.51,14.37-5.11l-3.85-9.14q-4,2.2-8.23,4.05l-.84.37c1-.41-.43.17-.5.2l-1.92.76c-1.5.58-3,1.11-4.53,1.62l4.86,8.36a54.86,54.86,0,0,1,4.9-5.64c.44-.44.9-.86,1.36-1.27l.79-.67c.39-.33.32-.24,0,0a25.84,25.84,0,0,1,3.3-2.09c.23-.12.48-.22.71-.35.63-.34-1.09.38.08,0,.57-.2,1.13-.39,1.7-.55a5.45,5.45,0,0,1,1.75-.38c-.34,0-.8.07-.15,0l1-.07c.59,0,1.17,0,1.76,0,.86,0-.16-.06-.17,0a5.89,5.89,0,0,1,.95.19,5.19,5.19,0,0,1,1.66.52c-.3-.21-.66-.32-.13,0l1,.58-1.8-6.84-2.31,3.16c-1.54,2.12-.42,5.67,1.8,6.84,2.6,1.38,5.19.47,6.84-1.79Z"/><path class="cls-2" d="M94.5,28.92a22.1,22.1,0,0,1,3.66,12.67c0,2.76,4.38,3.49,4.91.67a22,22,0,0,0-2.89-15.93c-1.09-1.75-4.06-1.57-4.56.6-1.19,5.06-.51,10.31-1.39,15.41a93.66,93.66,0,0,1-4.27,15Q84.44,73,78.87,88.77l-6.32,17.9c-.93,2.64,3.38,4.51,4.57,1.93l5.1-11a2.56,2.56,0,0,0-.9-3.42,2.52,2.52,0,0,0-3.42.89l-8.82,17.18c-1.47,2.86,2.84,5.39,4.31,2.52l8.83-17.17L77.9,95.05l-5.09,11L77.38,108,88.5,76.44l5.57-15.78a121.56,121.56,0,0,0,4.59-14.94,52.68,52.68,0,0,0,1.12-8.93,43.61,43.61,0,0,1,.66-8.54l-4.57.6a16.84,16.84,0,0,1,2.38,12.08l4.91.66A26.8,26.8,0,0,0,98.82,26.4c-1.76-2.69-6.09-.18-4.32,2.52Z"/><path class="cls-2" d="M60.23,125.3c5.23,0,10.25-4.6,10-10a10.17,10.17,0,0,0-10-10c-5.23,0-10.24,4.6-10,10a10.18,10.18,0,0,0,10,10Z"/><path class="cls-2" d="M53.38,118c5.23,0,10.24-4.6,10-10a10.17,10.17,0,0,0-10-10c-5.23,0-10.24,4.6-10,10a10.17,10.17,0,0,0,10,10Z"/><path class="cls-2" d="M74.33,114.54c-1.57,8.55-4.26,16.84-6.77,25.15l-7.75,25.72-4.45,14.77c-1.51,5,1.8,11.12,7,12.3a10.2,10.2,0,0,0,12.3-7c5.15-17.07,10.44-34.11,15.43-51.23a148.28,148.28,0,0,0,3.55-14.4,10.82,10.82,0,0,0-1-7.71,10,10,0,0,0-13.68-3.58c-2.08,1.34-4.13,3.44-4.6,6Z"/><path class="cls-2" d="M107.76,67.73c5.23,0,10.24-4.6,10-10a10.18,10.18,0,0,0-10-10c-5.24,0-10.25,4.6-10,10a10.17,10.17,0,0,0,10,10Z"/><path class="cls-2" d="M106.84,76.87c5.23,0,10.24-4.6,10-10a10.17,10.17,0,0,0-10-10c-5.23,0-10.24,4.6-10,10a10.18,10.18,0,0,0,10,10Z"/><path class="cls-2" d="M94.5,33.73c3.22,0,3.23-5,0-5s-3.22,5,0,5Z"/><path class="cls-3" d="M69.72,236.07c9.54-9.49,21.38-16,33.2-22.26,6-3.16,12-6.25,17.93-9.62a187.87,187.87,0,0,0,18.29-12c12-8.94,23.17-19,34.24-29.09,2.47-2.25,5.11-4.7,4.9-8.35-.2-3.28-2.48-5.91-5.14-7.6-5.66-3.62-13.32-2.69-19.31-.44-6.62,2.48-12.3,6.64-17.69,11.13-5.15,4.29-10.13,8.86-16,12.19a35.91,35.91,0,0,1-4.22,2.08c-1.31.53-2.85,1.12-3.9.43.3.2-.33-.3-.33-.29-.49-.51.11.23-.3-.37a8.35,8.35,0,0,1-.53-1,12,12,0,0,1-.8-3.69c-.27-3.71,0-7.51.11-11.23q.15-5.91.41-11.82,1.08-24.12,4-48.1c1-7.69,2.15-15.33,3.3-23,1-6.7,1.89-13.56,1.1-20.34a34.61,34.61,0,0,0-2.34-9.46,23.15,23.15,0,0,0-2.31-4.48c-1.25-1.78-3.55-1.32-5.27-.53-2.74,1.26-4.42,4.05-5.56,6.72-1.45,3.38-2.54,6.94-3.69,10.43a361.38,361.38,0,0,0-11.75,45.19q-1.08,5.63-2,11.27a2.57,2.57,0,0,0,1.74,3.08A2.53,2.53,0,0,0,91,113.16a363.67,363.67,0,0,1,15.25-61,43,43,0,0,1,2.56-6.61c.78-1.44,1.88-3,3.46-3.06l-2.16-1.24c5.74,9,4.56,20.35,3.05,30.43-1.9,12.66-3.73,25.3-5,38q-2,19.36-2.69,38.82-.18,4.94-.29,9.85c-.06,2.86-.25,5.76-.06,8.61.28,4.22,1.77,9.71,6.59,10.67,3.08.61,6.15-.89,8.85-2.22a49.82,49.82,0,0,0,6.85-4.16c4.54-3.23,8.68-7,13-10.5A57.11,57.11,0,0,1,154,152c4.42-1.88,10.31-3.34,15-1.42,1.64.68,3.54,2,4.17,3.65.69,1.85-1.17,3.41-2.61,4.73-4.5,4.11-9,8.22-13.58,12.25a273.55,273.55,0,0,1-28.13,22.2c-18.29,12.27-39.54,19.79-56.68,33.81q-3.1,2.54-5.95,5.36c-2.28,2.27,1.25,5.81,3.54,3.54Z"/><path class="cls-3" d="M107.73,47.47a51.65,51.65,0,0,0-.09-9.79A35.39,35.39,0,0,0,105.76,28c-1.4-3.53-4.41-7.51-8.68-7.16-4.51.38-6.29,4.75-7.77,8.39A387.16,387.16,0,0,0,72.14,83.52c-1.78,7.31-4,15.92-10.72,20.24l3.76,2.16q-1-19.26-3.25-38.43-1.14-9.6-2.6-19.17c-.48-3.13-1-6.26-1.52-9.38-.49-2.87-1.21-5.75-3.06-8.07a8.86,8.86,0,0,0-6.85-3.46,7.91,7.91,0,0,0-6.48,4.06,21.82,21.82,0,0,0-2.37,7,75.38,75.38,0,0,0-1.27,9c-.93,11.67.89,23.37,2.84,34.85,2.2,13,4.71,26,4,39.24-.16,3.22,4.84,3.21,5,0,1.12-22.22-6.64-43.61-7.1-65.72a71.25,71.25,0,0,1,1.31-16c.55-2.66,2.08-9.84,6.22-6.57C51.83,34.59,52.36,37,52.77,39c.56,2.88,1,5.79,1.44,8.68q1.36,8.77,2.46,17.58,2.49,20.25,3.51,40.63a2.53,2.53,0,0,0,3.76,2.16c6.17-3.94,9.4-10.57,11.46-17.38,1.07-3.54,1.86-7.16,2.74-10.75q1.62-6.6,3.49-13.14,3.78-13.19,8.54-26.06c1.49-4,2.92-8.17,4.74-12.07.47-1,1.21-2.77,2.5-2.91,1-.11,2.07,1.1,2.63,1.94,1.73,2.6,2.2,6.07,2.53,9.26a51.9,51.9,0,0,1,.16,10.5,2.52,2.52,0,0,0,2.5,2.5,2.56,2.56,0,0,0,2.5-2.5Z"/><path class="cls-3" d="M41.81,57.72a9.76,9.76,0,0,0-6.15-4.58,8.75,8.75,0,0,0-6.15,1.16c-5,3.13-5.92,9.79-6.55,15.09a236.16,236.16,0,0,0-1.36,39.88c.33,6.54,1.1,13.08.85,19.63-.24,6.34-1.95,12.39-3.57,18.49a89.3,89.3,0,0,0-3.22,19.21,77.7,77.7,0,0,0,1.6,19.24c1.19,5.65,3.11,11.16,3.84,16.91.64,4.95.37,10.28-3.31,14-2.25,2.3,1.28,5.84,3.54,3.54,7.37-7.55,5.05-18.72,2.72-27.88a100.61,100.61,0,0,1-3.21-16.39,72,72,0,0,1,.79-18.43c1.08-6.09,3.06-12,4.39-18a69.5,69.5,0,0,0,1.32-18.71c-.34-6.36-.88-12.69-1-19.06s0-13,.43-19.47q.35-5.41.94-10.81c.34-3.13.52-6.44,1.8-9.36a11.75,11.75,0,0,1,2-3.18,4.1,4.1,0,0,1,1.67-.94,2.81,2.81,0,0,1,2.12.1,5.49,5.49,0,0,1,2.2,2c1.77,2.67,6.1.17,4.32-2.52Z"/><path d="M51,152.55c-6.91,0-7.55-1.06-4.91-7.27a14,14,0,0,1,8.17-7.83A27.11,27.11,0,0,1,73.46,137c10.1,3.62,14,15,8.51,24.79A31,31,0,0,1,75,170c-2.64,2.31-5,4.79-5.26,8.51-.17,1.9-1.2,2.56-3,2.5-1.18-.05-2.37,0-3.56,0-6.81,0-7.46-1-5.36-7.5,1.12-3.49,3.64-5.77,6.34-7.89a20.45,20.45,0,0,0,6.57-8.34c1.73-4.3.27-8.95-3.16-10.54-3.85-1.79-7.75-.43-9.91,3.89C56,154.11,53,151.75,51,152.55Z"/><path class="cls-4" d="M63.29,198.35c-6.37,0-6.37,0-6.37-5.6,0-5.82,0-5.82,6.72-5.81,6,0,6,0,6,5.7S69.59,198.35,63.29,198.35Z"/></g></g></svg>