<svg xmlns="http://www.w3.org/2000/svg" viewBox="0 0 114.77 114.91"><defs><style>.cls-1{fill:#39ff14;}</style></defs><g id="Layer_2" data-name="Layer 2"><g id="Layer_1-2" data-name="Layer 1"><path class="cls-1" d="M57.41,114.91c-7.74-.14-15.5-.21-23.24-.43-6.69-.18-13.18-1.38-19-4.93A28.6,28.6,0,0,1,1.39,89.33,102.63,102.63,0,0,1,.11,73.46c-.18-11.4-.11-22.8,0-34.2.07-6,.27-12,2.25-17.75C6.22,10.36,14.05,3.58,25.53,1.4A90.86,90.86,0,0,1,41.27.1C52.66-.07,64.06,0,75.46.12c6,.07,12.07.27,17.86,2.27,11.11,3.85,17.85,11.66,20.05,23.08a91.37,91.37,0,0,1,1.3,15.87c.17,11.39.1,22.8,0,34.2-.06,6-.26,12-2.25,17.74-3.85,11.16-11.67,17.94-23.15,20.12a106.28,106.28,0,0,1-15.87,1.3c-5.31.21-10.64,0-16,0Zm47.2-58.47h-.23c0-4.53.09-9.06,0-13.58-.11-4.35-.28-8.72-.72-13-1-9.69-6.77-16.36-16.34-18.19a92.63,92.63,0,0,0-15.37-1.19c-9.68-.17-19.36-.15-29,0a105.08,105.08,0,0,0-14.64,1c-8.3,1.31-14,6.07-16.24,14.31a33.63,33.63,0,0,0-1.22,8.17c-.25,10.34-.41,20.7-.37,31.05,0,6.69.18,13.41.77,20.08.85,9.59,6.71,16.26,16.12,18.07a92.42,92.42,0,0,0,15.61,1.23c9.64.18,19.28.12,28.92,0,4.39-.05,8.8-.29,13.17-.73a20.88,20.88,0,0,0,11.09-4.29c5.39-4.24,7.47-10.12,7.78-16.65C104.29,74,104.38,65.2,104.61,56.44Z"/><path class="cls-1" d="M57.38,86.87A29.47,29.47,0,1,1,86.85,57.66,29.35,29.35,0,0,1,57.38,86.87ZM76.5,57.44A19.12,19.12,0,1,0,57.34,76.52,19.2,19.2,0,0,0,76.5,57.44Z"/><path class="cls-1" d="M88.1,19.88a6.78,6.78,0,0,1,6.8,7A6.91,6.91,0,0,1,88,33.7a7,7,0,0,1-6.91-7A6.91,6.91,0,0,1,88.1,19.88Z"/></g></g></svg>