<svg xmlns="http://www.w3.org/2000/svg" viewBox="0 0 162.7 216.76"><defs><style>.cls-1{fill:#39ff14;}.cls-2{fill:#221f20;}.cls-3{fill:#010200;}</style></defs><g id="Layer_2" data-name="Layer 2"><g id="Layer_1-2" data-name="Layer 1"><path class="cls-1" d="M71.73,18.47,62.29,49c-2.93,9.45-5.54,19.1-9.36,28.24l1-2.39a67.76,67.76,0,0,1-6.25,11.7,10,10,0,0,0,3.59,13.68c5.06,2.67,10.54,1,13.68-3.59,5.56-8.18,8.93-17.71,11.89-27.09,3.05-9.66,6-19.35,9-29L91,23.79c1.55-5-1.83-11.13-7-12.3a10.2,10.2,0,0,0-12.3,7Z"/><path class="cls-1" d="M45.74,99.38A519,519,0,0,0,32.55,154.8q-1.45,8-2.64,16c-.41,2.76-.46,5.19,1,7.7a10,10,0,0,0,13.68,3.59c2-1.31,4.22-3.47,4.6-6a517.89,517.89,0,0,1,11.44-55.81Q62.71,112.5,65,104.7c1.49-5-1.79-11.12-7-12.3a10.2,10.2,0,0,0-12.31,7Z"/><path class="cls-1" d="M34.69,108.72c.67,15.78,1.3,31.61.28,47.39q-.44,6.67-1.31,13.32l.36-2.66a142.75,142.75,0,0,1-5.92,26c-2,5.81,3.33,13.21,9.64,12.66l10.45-.9-10-10a6,6,0,0,1,0,1.34l.35-2.66a6.29,6.29,0,0,1-.38,1.28l1-2.39a6.13,6.13,0,0,1-.71,1.15l1.57-2a7.26,7.26,0,0,1-1,1l2-1.57a6.41,6.41,0,0,1-1.16.68l2.39-1a5.34,5.34,0,0,1-1.29.34l2.66-.36a3.87,3.87,0,0,1-.68,0l5,18.64,26.47-17.41c8.56-5.62,19.76-11.34,22.12-22.29a10.07,10.07,0,0,0-1.79-8.72c-2-2.63-4.6-3.66-7.85-3.94-15.31-1.32-31.08,4.78-42,15.5l15.71,12.12a59.23,59.23,0,0,1,4-5.92l-1.56,2a58.51,58.51,0,0,1,10.09-10.11l-17.07-7.07-.11,4.68a10.1,10.1,0,0,0,7.34,9.64,11.94,11.94,0,0,0,5.32,0c2.13-.48,5.06-2.54,6-4.59A137.64,137.64,0,0,0,85.1,139.27l-19.65-2.66-1.32,21.08h20a56.12,56.12,0,0,1,.47-8.88l-.36,2.66c1.63-12,6.4-23.26,9.08-35,3.06-13.44,3.39-27.5,4.39-41.21L99.34,53A10,10,0,0,0,82.27,45.9,11,11,0,0,0,79.34,53L77.42,79.19c-.63,8.65-1.06,17.34-2.19,25.94l.35-2.66c-2.54,18.67-12,36.07-11.45,55.22a10.42,10.42,0,0,0,2.93,7.07,10,10,0,0,0,17.07-7.07l1.32-21.08a10,10,0,0,0-2.93-7.07,10.32,10.32,0,0,0-5.74-2.75A9.59,9.59,0,0,0,70.41,128c-2.06,1.33-4.18,3.46-4.6,6a128.48,128.48,0,0,1-8.24,28.61l1-2.39c-.37.86-.74,1.71-1.12,2.56l18.64,5,.11-4.68A10,10,0,0,0,70.06,154a9.67,9.67,0,0,0-5.18-.68A11,11,0,0,0,59.14,156a65.29,65.29,0,0,0-15.68,18A10,10,0,0,0,59.17,186.2a45.3,45.3,0,0,1,3.89-3.42l-2,1.57a45.76,45.76,0,0,1,10-5.81l-2.39,1a46.31,46.31,0,0,1,11.51-3.14l-2.66.36a44.1,44.1,0,0,1,9.54-.21L77.35,163.9a13.75,13.75,0,0,1-.64,2.07l1-2.39a14.33,14.33,0,0,1-1.64,2.77l1.57-2a24.09,24.09,0,0,1-4.27,4.11l2-1.57c-2.66,2-5.5,3.77-8.28,5.6l-9.8,6.44L37.94,191.65c-3.58,2.36-6,6.95-4.59,11.29A10.29,10.29,0,0,0,43,210.28a15.09,15.09,0,0,0,10.95-4.65c2.7-2.83,4.7-7.12,4.25-11.1-.29-2.61-.88-5.2-2.93-7.07-1.85-1.71-4.45-3.16-7.07-2.93l-10.45.9,9.64,12.66c7.49-22.39,8.54-46.44,8-69.86-.15-6.5-.41-13-.69-19.51a10.49,10.49,0,0,0-2.93-7.07,10,10,0,0,0-17.07,7.07Z"/><path class="cls-1" d="M80,27Q72.21,70,62.78,112.58q-2.67,12-5.47,24a10.47,10.47,0,0,0,1,7.71A10,10,0,0,0,72,147.92a10.12,10.12,0,0,0,4.59-6q9.91-42.49,18.14-85.37,2.33-12.1,4.51-24.24a10.77,10.77,0,0,0-1-7.71A10,10,0,0,0,84.55,21c-2.08,1.34-4.14,3.45-4.6,6Z"/><path class="cls-1" d="M10.67,43.18A176.28,176.28,0,0,0,7,73.37c-.32,9.33.53,18.51,1.28,27.79a73.86,73.86,0,0,1,0,15.16l.36-2.66a49,49,0,0,1-3.27,11.43,37.4,37.4,0,0,0-2.73,13.67c0,8.87,2.79,17.61,4,26.36l-.36-2.66a141.63,141.63,0,0,1,0,37.08l.35-2.65-.06.47a11.19,11.19,0,0,0,1,7.71,10,10,0,0,0,13.68,3.59c2-1.3,4.25-3.48,4.59-6a153.06,153.06,0,0,0,1.36-30.85c-.36-5.46-1-10.92-1.94-16.32-.78-4.7-1.93-9.33-2.59-14l.36,2.66a35.27,35.27,0,0,1-.17-8.83l-.36,2.65c.71-5.08,3.33-9.55,4.58-14.49a60.44,60.44,0,0,0,1.56-17c-.19-5-.79-10-1.19-15a156.28,156.28,0,0,1-.48-15.9,160.61,160.61,0,0,1,1.36-17.81l-.36,2.66q.81-6,2.05-11.9a10.66,10.66,0,0,0-1-7.71A10,10,0,0,0,15.27,37.2a10.06,10.06,0,0,0-4.6,6Z"/><path class="cls-1" d="M20.28,58.92a88.61,88.61,0,0,1-.45,22.13l.36-2.65c-2.08,15.12-6.76,29.71-9.5,44.7A121.92,121.92,0,0,0,8.3,147.79c.18,8.37,1.67,16.65,2.25,25a142.7,142.7,0,0,1-.91,28.7c-.31,2.34,1.34,5.48,2.93,7.07a10,10,0,0,0,14.14,0l1.56-2a9.94,9.94,0,0,0,1.37-5,143.53,143.53,0,0,0,1-27.72c-.58-9.11-2.29-18.14-2.34-27.29a100.64,100.64,0,0,1,1-14l-.36,2.66c2.76-20.13,9.85-39.4,11.57-59.72a82.8,82.8,0,0,0-.18-16.51c-.32-2.74-.9-5.05-2.93-7.07a10,10,0,0,0-14.14,0c-1.67,1.82-3.23,4.49-2.93,7.07Z"/><path class="cls-1" d="M28.51,13.2,26.78,58a5,5,0,0,0,5,5,5.09,5.09,0,0,0,5-5L38.51,13.2a5,5,0,0,0-5-5,5.1,5.1,0,0,0-5,5Z"/><path class="cls-1" d="M26.85,19.58V37.41a5,5,0,0,0,10,0V19.58a5,5,0,0,0-10,0Z"/><path class="cls-1" d="M30.52,24.61l0,26.73c0,4.59-.12,9.2.91,13.71.43,1.88,1,3.72,1.59,5.57.3,1,.59,2,.82,3,.1.43.18.86.27,1.3.09.59.1.58,0,0,0,.3.06.59.08.88.21,2.61,2.16,5.13,5,5,2.54-.11,5.22-2.2,5-5-.34-4.37-1.84-8.32-2.92-12.52-.13-.51-.25-1-.35-1.52,0-.2-.28-1.78-.15-.74-.13-1-.19-2.07-.22-3.1-.07-2.18,0-4.37,0-6.56l0-26.73a5,5,0,1,0-10,0Z"/><path class="cls-1" d="M33.94,44.72a633,633,0,0,1-2.83,81.69c-.38,3.75-.78,7.51-1.23,11.26-.23,2-.47,3.91-.72,5.87-.12,1-.25,2-.38,2.93,0,.33-.08.65-.13,1,.13-1-.13.94-.15,1.11a5.53,5.53,0,0,0,.5,3.85,5.1,5.1,0,0,0,3,2.3c2.35.54,5.77-.72,6.15-3.49a643.88,643.88,0,0,0,6.08-83.34q.08-11.58-.28-23.16a5,5,0,0,0-10,0Z"/><path class="cls-1" d="M30.7,112.36q-3.09,30-3.69,60.16-.17,8.64-.13,17.29a5,5,0,0,0,4.33,4.91c2.3.31,5-1.13,5.49-3.58a37.81,37.81,0,0,1,1.71-6c.1-.27.53-1.27.17-.46.24-.55.5-1.09.76-1.62.47-.94,1-1.85,1.52-2.74l-9.14-3.85L22,204.16a5,5,0,0,0,1.79,5.25,5,5,0,0,0,5.55.39l9.75-5.4-7.34-5.64-3,7.86c-1.34,3.49,2.74,7.35,6.15,6.15l10.48-3.7-3.86-9.13-10.64,5.29c-2.65,1.32-3.47,5.92-1,7.85A16.3,16.3,0,0,0,39,216.7a18.25,18.25,0,0,0,8.1-1.29c5.82-2.31,10.42-6.55,15.29-10.36l1.65-1.29c.71-.55-.91.7.28-.21l.73-.57q1.85-1.41,3.71-2.8c2.36-1.75,4.74-3.49,7.14-5.19q7.27-5.19,14.8-10,8.51-5.47,17.27-10.49a5,5,0,0,0-5-8.64Q88.25,174.28,74.3,184q-7,4.83-13.71,10-3.65,2.77-7.24,5.63l-3,2.36s-1.09.84-.51.4-.55.41-.53.39c-.57.43-1.16.84-1.76,1.24A27.56,27.56,0,0,1,43.87,206c.87-.4.2-.08,0,0-.36.12-.71.25-1.08.35a6.75,6.75,0,0,1-1.86.41c1.12,0,.47,0,.19,0s-.76,0-1.15,0-.63,0-.94-.05c-.61,0,.95.24,0,0-.3-.08-.61-.13-.91-.22-.15,0-1.3-.49-.62-.18s-.09-.06-.24-.15-1.37-.93-.38-.15l-1,7.85,10.64-5.29a5,5,0,0,0,2.05-6.24c-.91-2.15-3.54-3.73-5.9-2.9l-10.48,3.7,6.15,6.15,3-7.86c.71-1.84-.36-4.15-1.79-5.26a5,5,0,0,0-5.56-.39l-9.75,5.4,7.35,5.64,9.71-27.69a5,5,0,0,0-2.89-5.9,5,5,0,0,0-6.24,2,41,41,0,0,0-5.17,13.22l9.82,1.33q-.12-30.13,2.25-60.22.67-8.62,1.57-17.23c.27-2.61-2.49-5.11-5-5-2.94.13-4.71,2.21-5,5Z"/><path class="cls-1" d="M84.84,189.45c11.63-.43,20.59-8,29.14-15.09,1.08-.89,2.17-1.78,3.27-2.66l1.84-1.46.73-.57.47-.37q3.52-2.73,7.14-5.32c4.76-3.43,9.66-6.6,14.56-9.81a26.4,26.4,0,0,0,7.63-7,13.83,13.83,0,0,0,2-11,5.05,5.05,0,0,0-6.15-3.49,5.1,5.1,0,0,0-3.5,6.15c.24.95.09,0,0-.17a4.57,4.57,0,0,1,0,1c.09.69.22-.84.05-.16-.09.32-.14.64-.24,1s-.17.5-.26.75c.08-.21.46-.85,0-.1-.14.23-.26.47-.41.7s-.91,1-.16.28a30.37,30.37,0,0,1-2.39,2.29c.87-.71-.64.45-.84.58-.57.39-1.16.77-1.74,1.15-4.58,2.93-9.09,5.94-13.49,9.1q-7.1,5.1-13.86,10.61c-1.93,1.57-3.83,3.18-5.77,4.74l-1.45,1.17c-.16.12-.75.58,0,0l-.66.5c-1,.75-2,1.47-3,2.16s-2.27,1.48-3.46,2.14c-.58.32-1.18.63-1.78.93l-.72.34c-1.2.57,1-.35-.27.12A27.56,27.56,0,0,1,88,179l-1,.21c-.15,0-1.26.23-.51.11s-.48,0-.53,0c-.4,0-.8.06-1.2.07-2.61.1-5.13,2.23-5,5a5.07,5.07,0,0,0,5,5Z"/><path class="cls-1" d="M156.8,140l2.31-3.16c1.62-2.22.32-5.54-1.8-6.84-5.87-3.61-13.08-3.14-19.17-.41-5.5,2.46-9.78,7-13.41,11.72-1.33,1.72-2.08,4.05-.78,6.06a5.08,5.08,0,0,0,5.65,2.3,111.23,111.23,0,0,0,18.4-8,5,5,0,0,0-3.85-9.14c-8.88,2.95-17.87,6-26,10.6-7.86,4.46-14.39,10.72-21.13,16.65-1,.84-1.92,1.67-2.9,2.49-.43.36-.86.72-1.3,1.07l-.66.54c-.1.07-1,.79-.49.39s-.11.08-.17.12l-.84.63c-.51.38-1,.75-1.55,1.11-1,.72-2.11,1.4-3.2,2.06l5,8.63c8.5-5.43,17-10.87,25.13-16.88,2.27-1.68,4.52-3.41,6.73-5.17.91-.73,1.81-1.47,2.7-2.21a12.62,12.62,0,0,1,1.33-1.11c-1.19.74.34-.16.59-.3,1.1-.61-.74.21.4-.19.21-.08.91-.16.12-.08-1,.09.63.21-.43,0s.48.39-.45-.11a4.12,4.12,0,0,1-.91-.52,2.58,2.58,0,0,1-.71-1.09s-.24-2.3.21-2.09c0,0-.33.64-.35.57s.81-.81.1-.2a5.72,5.72,0,0,1-.53.5s.76-.52.27-.2c-1,.65-2.07,1.19-3.15,1.74l-16.29,8.31,6.84,6.84,6.71-8.94c1.49-2,.49-5.08-1.29-6.45-2.09-1.62-4.6-1.21-6.56.39l-1.26,1,.1-.08-.74.56c-.92.7-1.86,1.37-2.8,2s-1.66,1.13-2.5,1.67c-.44.28-.88.58-1.34.84l-.17.11c-.43.22-.47.25-.13.08a1.36,1.36,0,0,1,1.45.06,1.72,1.72,0,0,1,1.51.36c.15.1.85,1.06.58.57-.07-.14-.18-.27-.26-.4a10.77,10.77,0,0,0-1.28-1.64,7.58,7.58,0,0,0-3.82-2.08,11.64,11.64,0,0,0-4.4.13,20.41,20.41,0,0,0-2.61.6l.59-.07-.36,0c-.23-.18-.65.26,0,.05l.32,0a3.81,3.81,0,0,1-.51-.12c-.6-.07.44.18.37.19-.23,0-1.22-.84-.69-.37s-1-1.05-.38-.39c.44.5-.3-.52-.41-.71s-.21-.73,0,.13c-.06-.21-.14-.41-.2-.62-.15-.49-.23-1-.35-1.49,0,.07.07.84,0,.25,0-.37-.07-.74-.09-1.1-.25-4.53,0-9.12,0-13.65l.12-15.95a5,5,0,0,0-10,0l-.12,15.71L82,143.21a57.91,57.91,0,0,0,.16,7.57c.66,5.43,3.63,11.3,9.57,12.37a12.13,12.13,0,0,0,4.65-.08c.5-.1,1-.23,1.5-.35l.74-.18.37-.08c.47-.08.48-.09,0,0l-.31.06c.45,0,.46,0,0-.06l-1.15-.52c-.44-.22-.18-.17,0,0-.77-.88-.39-.49-.22-.23a8,8,0,0,0,3.69,3.35c3.68,1.55,7-.8,9.91-2.79,2.58-1.76,5.07-3.65,7.49-5.61l-7.85-6.06-6.71,8.95c-1.26,1.68-.71,4.68.78,6.06a5.22,5.22,0,0,0,6.06.78L127.24,158c2.67-1.37,5.27-2.95,6.86-5.61a7.54,7.54,0,0,0-2.24-10.3c-6.09-3.82-11.92,2.24-16.33,5.76L114.07,149c-1.18.92.43-.32-.28.22l-.93.7c-1.11.85-2.23,1.68-3.36,2.5q-3.57,2.59-7.24,5.08c-5.39,3.67-10.89,7.18-16.39,10.7-2.2,1.4-3.3,4.51-1.79,6.84a5.09,5.09,0,0,0,6.84,1.79c7.6-4.57,13.93-10.82,20.59-16.6.75-.65,1.5-1.3,2.27-1.93l1.14-.94.66-.53c.1-.07,1-.78.5-.39s.22-.16.34-.25l.51-.38,1.37-1c.9-.63,1.82-1.23,2.75-1.8,1.89-1.18,3.85-2.25,5.85-3.24,1-.49,2-1,3-1.42l1.44-.63c.71-.32-.69.27,0,0l1-.42c4.72-1.91,9.55-3.51,14.37-5.12L143,133q-4,2.21-8.23,4.05l-.84.37c1-.41-.43.17-.5.2-.63.26-1.27.51-1.92.76q-2.25.85-4.53,1.62l4.86,8.36a56,56,0,0,1,4.9-5.65c.45-.43.9-.85,1.36-1.26l.79-.67c.39-.33.32-.24,0,0a25.84,25.84,0,0,1,3.3-2.09l.71-.35c.63-.34-1.09.38.08,0,.57-.2,1.13-.39,1.7-.55a5.45,5.45,0,0,1,1.75-.38c-.34,0-.8.07-.15,0,.32,0,.65-.06,1-.07.59,0,1.17,0,1.76,0,.86,0-.16-.06-.17,0a5.89,5.89,0,0,1,.95.19,5.19,5.19,0,0,1,1.66.52c-.3-.21-.66-.32-.13,0l1,.58-1.8-6.84L148.16,135c-1.54,2.12-.42,5.67,1.8,6.84,2.6,1.38,5.19.47,6.84-1.79Z"/><path class="cls-1" d="M78.91,8.14a22.1,22.1,0,0,1,3.66,12.67c0,2.76,4.38,3.49,4.91.67A22.09,22.09,0,0,0,84.6,5.55C83.5,3.8,80.54,4,80,6.14c-1.19,5.07-.51,10.32-1.39,15.42a92.63,92.63,0,0,1-4.27,15Q68.85,52.27,63.28,68L57,85.89c-.94,2.64,3.37,4.51,4.56,1.93l5.1-11a2.56,2.56,0,0,0-.9-3.42,2.52,2.52,0,0,0-3.42.89L53.49,91.45C52,94.31,56.33,96.84,57.8,94L66.63,76.8l-4.32-2.53-5.09,11,4.57,1.93L72.91,55.66l5.57-15.78a122.09,122.09,0,0,0,4.59-14.94A51.68,51.68,0,0,0,84.19,16a43.61,43.61,0,0,1,.66-8.54l-4.57.6a16.84,16.84,0,0,1,2.38,12.08l4.91.66A26.8,26.8,0,0,0,83.23,5.62c-1.76-2.69-6.09-.18-4.32,2.52Z"/><path class="cls-1" d="M44.64,104.52c5.24,0,10.25-4.6,10-10a10.17,10.17,0,0,0-10-10c-5.23,0-10.24,4.6-10,10a10.18,10.18,0,0,0,10,10Z"/><path class="cls-1" d="M37.79,97.21c5.23,0,10.24-4.6,10-10a10.17,10.17,0,0,0-10-10c-5.23,0-10.24,4.6-10,10a10.17,10.17,0,0,0,10,10Z"/><path class="cls-1" d="M58.74,93.76c-1.57,8.55-4.26,16.84-6.77,25.15l-7.75,25.72L39.77,159.4c-1.51,5,1.8,11.12,7,12.3a10.21,10.21,0,0,0,12.3-7c5.15-17.07,10.44-34.11,15.43-51.23A145.43,145.43,0,0,0,78,99.08a10.82,10.82,0,0,0-1-7.71,10,10,0,0,0-13.68-3.58c-2.08,1.34-4.13,3.44-4.6,6Z"/><path class="cls-1" d="M92.17,47c5.23,0,10.24-4.6,10-10a10.18,10.18,0,0,0-10-10c-5.23,0-10.25,4.6-10,10a10.17,10.17,0,0,0,10,10Z"/><path class="cls-1" d="M91.25,56.09c5.23,0,10.24-4.6,10-10a10.17,10.17,0,0,0-10-10c-5.23,0-10.24,4.6-10,10a10.19,10.19,0,0,0,10,10Z"/><path class="cls-1" d="M78.91,13c3.22,0,3.23-5,0-5s-3.22,5,0,5Z"/><path class="cls-2" d="M54.13,215.29c9.55-9.49,21.38-16,33.2-22.26,6-3.16,12-6.25,17.93-9.62a186.67,186.67,0,0,0,18.29-12c12-8.94,23.18-19,34.24-29.09,2.47-2.25,5.11-4.7,4.9-8.35-.2-3.28-2.48-5.91-5.14-7.61-5.66-3.61-13.32-2.68-19.31-.43-6.62,2.48-12.3,6.64-17.69,11.13-5.15,4.28-10.13,8.86-16,12.19a35.91,35.91,0,0,1-4.22,2.08c-1.31.53-2.85,1.12-3.9.43.31.2-.33-.3-.32-.29-.5-.51.11.23-.3-.37a7.28,7.28,0,0,1-.54-1,12,12,0,0,1-.8-3.69c-.27-3.71,0-7.51.11-11.23q.15-5.91.41-11.82,1.08-24.12,4-48.1c1-7.69,2.15-15.33,3.3-23,1-6.7,1.89-13.56,1.1-20.34a34.61,34.61,0,0,0-2.34-9.46A23.15,23.15,0,0,0,98.8,18c-1.25-1.78-3.55-1.32-5.26-.53-2.75,1.25-4.43,4-5.57,6.72-1.45,3.38-2.54,6.94-3.69,10.43A361.38,361.38,0,0,0,72.53,79.78q-1.08,5.63-2,11.27a2.58,2.58,0,0,0,1.74,3.08,2.53,2.53,0,0,0,3.08-1.75,362.73,362.73,0,0,1,15.26-61,42,42,0,0,1,2.55-6.61c.78-1.44,1.89-3,3.46-3.06l-2.16-1.24c5.74,9,4.56,20.35,3,30.43-1.9,12.66-3.73,25.29-5,38q-2,19.36-2.69,38.82-.18,4.94-.29,9.85c-.06,2.86-.25,5.76-.06,8.61.28,4.22,1.77,9.7,6.59,10.67,3.08.61,6.15-.89,8.85-2.22a49.82,49.82,0,0,0,6.85-4.16c4.54-3.23,8.68-7,13-10.5a57,57,0,0,1,13.68-8.85c4.42-1.88,10.31-3.34,15-1.42,1.64.68,3.54,2,4.17,3.65.69,1.85-1.17,3.41-2.61,4.73-4.5,4.11-9,8.22-13.58,12.25a272.09,272.09,0,0,1-28.13,22.19c-18.29,12.28-39.54,19.79-56.68,33.82q-3.1,2.54-5.95,5.36c-2.28,2.27,1.25,5.81,3.54,3.54Z"/><path class="cls-2" d="M92.14,26.69a51.65,51.65,0,0,0-.09-9.79,35.32,35.32,0,0,0-1.88-9.72C88.77,3.65,85.76-.33,81.49,0,77,.4,75.2,4.77,73.72,8.41A389.8,389.8,0,0,0,56.55,62.74C54.77,70.05,52.6,78.66,45.83,83l3.76,2.16q-1-19.26-3.25-38.43-1.14-9.6-2.6-19.17c-.48-3.13-1-6.26-1.52-9.38-.49-2.87-1.21-5.75-3.06-8.07a8.86,8.86,0,0,0-6.85-3.46,7.88,7.88,0,0,0-6.47,4.06,21.6,21.6,0,0,0-2.38,7,75.38,75.38,0,0,0-1.27,9C21.26,38.34,23.08,50,25,61.52c2.2,13,4.71,26,4,39.24-.17,3.22,4.84,3.21,5,0C35.19,78.54,27.43,57.15,27,35a71.25,71.25,0,0,1,1.31-16c.56-2.66,2.08-9.84,6.22-6.57,1.74,1.37,2.27,3.75,2.68,5.81.56,2.88,1,5.78,1.44,8.68Q40,35.71,41.08,44.51q2.49,20.25,3.51,40.63a2.54,2.54,0,0,0,3.77,2.16c6.17-3.94,9.39-10.58,11.45-17.38,1.07-3.54,1.86-7.16,2.74-10.75Q64.17,52.57,66,46,69.82,32.85,74.58,20c1.49-4,2.92-8.17,4.74-12.07.47-1,1.21-2.77,2.5-2.91,1.05-.11,2.08,1.1,2.63,1.94,1.73,2.6,2.2,6.07,2.53,9.26a51.9,51.9,0,0,1,.16,10.5,2.52,2.52,0,0,0,2.5,2.5,2.55,2.55,0,0,0,2.5-2.5Z"/><path class="cls-2" d="M26.22,36.94a9.74,9.74,0,0,0-6.14-4.58,8.76,8.76,0,0,0-6.16,1.16C9,36.65,8,43.31,7.37,48.61A237.21,237.21,0,0,0,6,88.49c.33,6.54,1.1,13.08.85,19.63-.24,6.34-1.95,12.39-3.57,18.49A89.3,89.3,0,0,0,.07,145.82a77.7,77.7,0,0,0,1.6,19.24c1.19,5.65,3.11,11.16,3.84,16.91.64,4.95.37,10.28-3.31,14-2.25,2.3,1.29,5.84,3.54,3.53,7.37-7.54,5-18.71,2.72-27.87a100.61,100.61,0,0,1-3.21-16.39A72,72,0,0,1,6,136.85c1.08-6.09,3.06-12,4.39-18a69.1,69.1,0,0,0,1.32-18.71c-.34-6.36-.87-12.69-1-19.06s0-13,.43-19.47q.35-5.41.94-10.81c.34-3.13.52-6.44,1.81-9.36a11.48,11.48,0,0,1,2-3.18,4.1,4.1,0,0,1,1.67-.94,2.81,2.81,0,0,1,2.12.1,5.49,5.49,0,0,1,2.2,2c1.77,2.67,6.1.17,4.32-2.52Z"/><path d="M35.42,131.77c-6.91,0-7.55-1.06-4.91-7.27a14,14,0,0,1,8.17-7.83,27.11,27.11,0,0,1,19.19-.41c10.1,3.62,14,15,8.52,24.78a31.21,31.21,0,0,1-7,8.13c-2.65,2.31-4.95,4.79-5.27,8.51-.17,1.9-1.2,2.56-3,2.5-1.18-.05-2.37,0-3.56,0-6.81,0-7.45-1-5.36-7.5,1.12-3.49,3.64-5.77,6.34-7.89a20.45,20.45,0,0,0,6.57-8.34c1.73-4.3.27-8.95-3.16-10.54-3.85-1.79-7.75-.43-9.91,3.89C40.37,133.33,37.37,131,35.42,131.77Z"/><path class="cls-3" d="M47.7,177.57c-6.37,0-6.37,0-6.37-5.6,0-5.82,0-5.82,6.72-5.81,6,0,6,0,6,5.7S54,177.57,47.7,177.57Z"/></g></g></svg>