<svg xmlns="http://www.w3.org/2000/svg" viewBox="0 0 100.22 117.11"><defs><style>.cls-1{fill:#39ff14;}</style></defs><g id="Layer_2" data-name="Layer 2"><g id="Layer_1-2" data-name="Layer 1"><path class="cls-1" d="M54.71,0H71.36c3,16.12,12.6,25.4,28.86,28V47.39C88.2,48,78.8,43.46,71.28,33.56v3q0,22.08,0,44.15c0,21.54-16.86,37.49-38.35,36.31C14.78,116.06,0,100.16,0,81.56A35.55,35.55,0,0,1,34.74,45.92c.94,0,1.88,0,2.94,0V63.2a47.39,47.39,0,0,0-5,.42A18.11,18.11,0,0,0,17.59,83.77,18.34,18.34,0,0,0,36.45,99.7c10.18-.54,18-8.38,18.07-18.17q.13-39.36.19-78.71Z"/></g></g></svg>